<svg width="363" height="51" viewBox="0 0 363 51" fill="none" xmlns="http://www.w3.org/2000/svg">
<path d="M15.6439 42.8528H34.4145C35.9065 42.8528 36.7599 41.9461 36.7599 40.9341C36.7599 39.9208 35.9065 39.0141 34.4145 39.0141H15.6439C14.2039 39.0141 13.2972 39.9208 13.2972 40.9341C13.2972 41.9461 14.2039 42.8528 15.6439 42.8528ZM46.7852 6.32476C47.2652 6.96609 47.4785 7.60476 47.4252 8.35276L46.7852 18.0034L35.2665 18.7501L35.8532 9.31276H4.01854L2.63188 1.31409H41.7199C42.5719 1.31409 43.2119 1.63276 43.6919 2.27276L46.7852 6.32476ZM11.1119 31.0154H38.9465C44.5985 31.0154 48.4919 35.1741 48.4919 40.9341C48.4919 46.6928 44.5985 50.8514 38.9465 50.8514H11.1119C5.45854 50.8514 1.56521 46.6928 1.56521 40.9341C1.56521 35.1741 5.45854 31.0154 11.1119 31.0154ZM27.6945 12.1381V20.3501H49.5585V28.3488H0.499878V20.3501H15.9639V12.1381H27.6945Z" fill="#231916"/>
<path d="M90.36 36.7747V29.0414H84.7613V19.7107H90.36V15.7641H84.7613V6.43208H90.04L87.64 1.31341H102.091V36.7747H90.36ZM65.564 18.6441C65.564 20.4041 66.9506 21.5241 68.6573 21.5241C70.3626 21.5241 71.7493 20.4041 71.7493 18.6441V13.2574C71.7493 11.4987 70.3626 10.3787 68.6573 10.3787C66.9506 10.3787 65.564 11.4987 65.564 13.2574V18.6441ZM69.2973 41.5201H102.624V50.8521H63.1653C62.364 50.8521 61.724 50.5841 61.192 49.9987L58.2053 46.8534C57.672 46.2654 57.4053 45.6801 57.4053 44.8787V32.2961H69.2973V41.5201ZM83.2146 18.9641C83.2146 26.6947 77.136 30.3214 68.6573 30.3214C60.1786 30.3214 54.1 26.6947 54.1 18.9641V12.9387C54.1 5.20541 60.1786 1.58008 68.6573 1.58008C77.136 1.58008 83.2146 5.20541 83.2146 12.9387V18.9641Z" fill="#231916"/>
<path d="M120.764 13.3106H142.627V9.5773H120.764V13.3106ZM120.764 34.64V42.32H155.159V50.852H114.792C113.992 50.852 113.352 50.584 112.819 49.9986L109.833 46.8533C109.299 46.2653 109.032 45.68 109.032 44.8786V34.64H120.764ZM107.167 24.244H156.224V32.7746H138.095V39.6H126.363V32.7746H107.167V24.244ZM109.032 7.12664L106.847 1.31331H154.359V21.5773H114.792C113.992 21.5773 113.352 21.3093 112.819 20.724L109.833 17.5773C109.299 16.9906 109.032 16.404 109.032 15.604V7.12664Z" fill="#231916"/>
<path d="M208.758 50.8516H197.027V7.12626L194.307 1.31426H208.758V50.8516ZM172.658 18.6449C172.658 20.9903 174.736 22.3236 177.456 22.3236C180.176 22.3236 182.256 20.9903 182.256 18.6449V15.1249C182.256 12.7783 180.176 11.4449 177.456 11.4449C174.736 11.4449 172.658 12.7783 172.658 15.1249V18.6449ZM161.192 19.3903V14.3783C161.192 6.64626 167.006 1.58093 177.456 1.58093C187.908 1.58093 193.72 6.64626 193.72 14.3783V19.3903C193.72 27.1223 187.908 32.1889 177.456 32.1889C167.006 32.1889 161.192 27.1223 161.192 19.3903ZM160.499 39.3863H195.427V49.2516H160.499V39.3863Z" fill="#231916"/>
<path d="M258.945 21.0429H265.557V30.9082H258.945V50.8509H247.215V7.12556L244.495 1.31356H258.945V21.0429ZM232.816 28.7762C232.816 26.5896 230.949 25.0962 228.924 25.0962C226.897 25.0962 225.031 26.5896 225.031 28.7762V37.8416C225.031 40.0269 226.897 41.5189 228.924 41.5189C230.949 41.5189 232.816 40.0269 232.816 37.8416V28.7762ZM243.481 29.1482V37.4669C243.481 45.4122 237.296 50.0522 228.924 50.0522C220.552 50.0522 214.365 45.4122 214.365 37.4669V29.1482C214.365 21.2029 220.552 16.5642 228.924 16.5642C237.296 16.5642 243.481 21.2029 243.481 29.1482ZM234.789 6.11356H244.548V15.1789H213.3V6.11356H222.844L220.339 0.780226H234.789V6.11356Z" fill="#231916"/>
<path d="M315.425 50.8516H303.694V7.12626L300.974 1.31426H315.425V50.8516ZM296.654 7.12626C297.135 7.76626 297.401 8.35293 297.294 9.15293L291.482 48.4516L279.698 49.5183L285.457 11.9783H268.499L266.899 2.11293H291.589C292.442 2.11293 293.082 2.43426 293.562 3.07293L296.654 7.12626Z" fill="#231916"/>
<path d="M362.361 19.7109V30.1615L333.3 44.7202V32.8282L350.577 24.9362L333.3 17.0442V5.15222L362.361 19.7109Z" fill="#231916"/>
</svg>
