<svg width="100" height="100" viewBox="0 0 100 100" fill="none" xmlns="http://www.w3.org/2000/svg">
<rect width="100" height="100" fill="#FEFEFE"/>
<path d="M29.5833 68.25C27.9792 68.25 26.6059 67.6788 25.4635 66.5365C24.3212 65.3941 23.75 64.0208 23.75 62.4167V21.5833C23.75 19.9792 24.3212 18.6059 25.4635 17.4635C26.6059 16.3212 27.9792 15.75 29.5833 15.75H70.4167C72.0208 15.75 73.3941 16.3212 74.5365 17.4635C75.6788 18.6059 76.25 19.9792 76.25 21.5833V62.4167C76.25 64.0208 75.6788 65.3941 74.5365 66.5365C73.3941 67.6788 72.0208 68.25 70.4167 68.25H29.5833ZM29.5833 62.4167H70.4167V21.5833H29.5833V62.4167ZM32.5 56.5833H67.5L56.5625 42L47.8125 53.6667L41.25 44.9167L32.5 56.5833ZM39.7917 36.1667C41.0069 36.1667 42.0399 35.7413 42.8906 34.8906C43.7413 34.0399 44.1667 33.0069 44.1667 31.7917C44.1667 30.5764 43.7413 29.5434 42.8906 28.6927C42.0399 27.842 41.0069 27.4167 39.7917 27.4167C38.5764 27.4167 37.5434 27.842 36.6927 28.6927C35.842 29.5434 35.4167 30.5764 35.4167 31.7917C35.4167 33.0069 35.842 34.0399 36.6927 34.8906C37.5434 35.7413 38.5764 36.1667 39.7917 36.1667Z" fill="#999999"/>
<path d="M16.894 79.805V81.576C16.894 83.314 18.016 85.107 19.402 85.8L18.841 86.515C17.796 85.954 16.905 84.799 16.454 83.446C16.025 84.887 15.112 86.119 14.001 86.713L13.462 85.987C14.881 85.261 16.003 83.369 16.003 81.576V79.805H16.894ZM22.801 82.951V83.699H21.173V88.814H20.271V78.958H21.173V82.951H22.801ZM31.7981 78.958V86.174H30.8961V78.958H31.7981ZM29.7301 84.051L29.2901 84.766C28.1571 84.37 27.2551 83.556 26.8041 82.522C26.3861 83.644 25.4731 84.535 24.3071 84.953L23.8341 84.249C25.3301 83.732 26.3311 82.445 26.3311 81.037V80.498H24.0761V79.772H29.4881V80.498H27.2551V81.037C27.2551 82.368 28.2781 83.567 29.7301 84.051ZM26.3531 87.857H32.0951V88.594H25.4511V85.492H26.3531V87.857ZM40.9933 78.947H41.8953V88.836H40.9933V78.947ZM36.6923 79.706C38.1553 79.706 39.2003 81.048 39.2003 83.149C39.2003 85.25 38.1553 86.592 36.6923 86.592C35.2293 86.592 34.1843 85.25 34.1843 83.149C34.1843 81.048 35.2293 79.706 36.6923 79.706ZM36.6923 80.52C35.7243 80.52 35.0423 81.554 35.0423 83.149C35.0423 84.755 35.7243 85.789 36.6923 85.789C37.6493 85.789 38.3313 84.755 38.3313 83.149C38.3313 81.554 37.6493 80.52 36.6923 80.52ZM50.7412 87.978V86.647H49.0032V87.978H50.7412ZM50.7412 85.976V84.733H51.5772V88.682H48.1562V84.733H49.0032V85.976H50.7412ZM49.7292 83.182C50.7082 83.182 51.4122 82.544 51.4122 81.653C51.4122 80.762 50.7082 80.135 49.7292 80.135C48.7502 80.135 48.0462 80.762 48.0462 81.653C48.0462 82.544 48.7502 83.182 49.7292 83.182ZM54.2502 82.005H52.2482C52.0722 83.16 51.0822 83.93 49.7292 83.93C48.2552 83.93 47.1882 83.006 47.1882 81.653C47.1882 80.3 48.2552 79.387 49.7292 79.387C51.0602 79.387 52.0502 80.135 52.2372 81.268H54.2502V78.958H55.1632V84.172H54.2502V82.005ZM54.3712 84.667V85.503C54.3712 86.548 54.9872 87.626 56.1642 88.088L55.7132 88.77C54.8222 88.396 54.2282 87.725 53.9312 86.911C53.6122 87.714 53.0182 88.396 52.1602 88.77L51.6982 88.088C52.8752 87.582 53.4912 86.515 53.4912 85.503V84.667H54.3712ZM65.5683 82.027L65.2383 82.753C63.7093 82.511 62.2463 81.741 61.6193 80.641C61.0033 81.741 59.5293 82.511 57.9893 82.753L57.6593 82.027C59.4303 81.807 61.1573 80.751 61.1573 79.497V79.057H62.0813V79.497C62.0813 80.718 63.8193 81.807 65.5683 82.027ZM64.0173 87.956V86.702H59.1663V87.956H64.0173ZM64.0173 86.009V84.854H64.9083V88.682H58.2753V84.854H59.1663V86.009H64.0173ZM57.1423 83.446H66.0743V84.172H57.1423V83.446ZM68.7905 79.904V85.492C70.2755 85.492 71.8045 85.36 73.4435 85.03L73.5425 85.8C71.8265 86.152 70.2755 86.262 68.7025 86.262H67.8885V79.904H68.7905ZM74.4555 78.947H75.3575V88.803H74.4555V78.947ZM78.7116 80.641V85.602C80.4606 85.602 81.7256 85.525 83.1556 85.272L83.2546 86.02C81.7476 86.306 80.4496 86.372 78.5906 86.372H77.8096V79.893H82.3966V80.641H78.7116ZM86.6096 82.841V83.589H84.9816V88.836H84.0796V78.947H84.9816V82.841H86.6096Z" fill="#999999"/>
</svg>
