<?xml version="1.0" encoding="utf-8"?>
<!-- Generator: Adobe Illustrator 28.0.0, SVG Export Plug-In . SVG Version: 6.00 Build 0)  -->
<svg version="1.1" id="레이어_1" xmlns="http://www.w3.org/2000/svg" xmlns:xlink="http://www.w3.org/1999/xlink" x="0px"
	 y="0px" viewBox="0 0 256 256" style="enable-background:new 0 0 256 256;" xml:space="preserve">
<style type="text/css">
	.st0{fill:#DBDBDB;}
	.st1{fill:#FFFFFF;}
</style>
<g>
	<path class="st0" d="M256,128C256,57.3,198.7,0,128,0S0,57.3,0,128c0,63.9,46.8,116.8,108,126.4V165H75.5v-37H108V99.8
		c0-32.1,19.1-49.8,48.3-49.8c14,0,28.7,2.5,28.7,2.5V84h-16.1C153,84,148,93.9,148,104v24h35.5l-5.7,37H148v89.4
		C209.2,244.8,256,191.9,256,128"/>
	<path class="st1" d="M177.8,165l5.7-37H148v-24c0-10.1,5-20,20.9-20H185V52.5c0,0-14.6-2.5-28.7-2.5C127.1,50,108,67.7,108,99.8
		V128H75.5v37H108v89.4c6.5,1,13.2,1.6,20,1.6s13.5-0.5,20-1.6V165H177.8"/>
</g>
</svg>
