<?xml version="1.0" encoding="utf-8"?>
<!-- Generator: Adobe Illustrator 28.0.0, SVG Export Plug-In . SVG Version: 6.00 Build 0)  -->
<svg version="1.1" id="레이어_1" xmlns="http://www.w3.org/2000/svg" xmlns:xlink="http://www.w3.org/1999/xlink" x="0px"
	 y="0px" viewBox="0 0 256 180" style="enable-background:new 0 0 256 180;" xml:space="preserve">
<style type="text/css">
	.st0{fill:url(#SVGID_1_);}
	.st1{fill:#FFFFFF;}
</style>
<g>
	<linearGradient id="SVGID_1_" gradientUnits="userSpaceOnUse" x1="-14.2642" y1="89.642" x2="241.7315" y2="89.642">
		<stop  offset="0" style="stop-color:#FFFFFF"/>
		<stop  offset="0" style="stop-color:#F7F7F7"/>
		<stop  offset="0" style="stop-color:#000000"/>
	</linearGradient>
	<path class="st0" d="M250.3,28.1c-3-11-11.6-19.7-22.7-22.7C207.8,0,127.9,0,127.9,0S47.9,0.2,28,5.6C17,8.6,8.4,17.2,5.4,28.2
		c-6,35.3-8.3,89.1,0.2,123c3,11,11.6,19.7,22.7,22.7c19.9,5.4,99.8,5.4,99.8,5.4s80,0,99.8-5.4c11-3,19.7-11.6,22.7-22.7
		C256.8,115.9,258.8,62.1,250.3,28.1z"/>
	<polygon class="st1" points="102.4,128.1 168.7,89.6 102.4,51.2 	"/>
</g>
</svg>
